<?xml version="1.0" standalone="no"?>
<!DOCTYPE svg PUBLIC "-//W3C//DTD SVG 20010904//EN"
 "http://www.w3.org/TR/2001/REC-SVG-20010904/DTD/svg10.dtd">
<svg version="1.0" xmlns="http://www.w3.org/2000/svg"
 width="544.000000pt" height="93.000000pt" viewBox="0 0 544.000000 93.000000"
 preserveAspectRatio="xMidYMid meet">

<g transform="translate(0.000000,93.000000) scale(0.100000,-0.100000)"
fill="#000000" stroke="none">
<path d="M735 865 c-16 -7 -66 -21 -110 -30 -93 -20 -151 -46 -181 -81 -19
-23 -23 -24 -50 -12 -16 7 -43 23 -60 35 -17 13 -41 23 -52 23 -22 0 -22 -1
-22 -255 0 -281 2 -294 61 -336 39 -27 139 -59 188 -59 50 0 137 27 173 53 66
49 68 58 68 341 0 286 2 277 -68 232 -42 -28 -140 -62 -149 -52 -6 6 65 40
187 90 36 15 76 36 90 46 l25 20 -35 -1 c-19 0 -48 -6 -65 -14z m-275 -166 c0
-4 -7 -9 -15 -13 -8 -3 -15 -14 -15 -25 0 -11 -6 -22 -12 -25 -7 -3 -2 -3 12
0 51 11 82 28 90 48 5 15 16 21 39 21 17 0 31 -2 31 -5 0 -3 -20 -16 -45 -30
-25 -14 -45 -28 -45 -32 0 -4 46 -9 102 -10 56 -2 103 -7 105 -13 2 -6 -27 -9
-78 -7 -64 3 -80 1 -77 -10 3 -7 15 -14 29 -16 63 -7 69 -11 69 -47 l0 -35
-150 0 c-137 0 -171 6 -140 25 6 3 10 24 10 46 0 38 -1 39 -35 39 l-36 0 3
-122 3 -123 85 -6 c47 -3 76 -6 65 -7 -50 -5 -101 -26 -126 -53 -44 -47 -50
-25 -47 162 l3 164 40 3 c22 1 50 8 62 14 l22 11 -22 18 c-12 9 -24 15 -26 13
-3 -2 4 -11 15 -20 18 -14 17 -14 -6 -3 -34 16 -51 30 -45 38 5 9 135 9 135 0z
m260 -321 c0 -66 -4 -90 -20 -116 -11 -18 -25 -30 -30 -27 -6 3 -10 42 -10 85
0 68 -3 81 -19 90 -11 5 -76 10 -145 10 -119 0 -126 1 -126 20 0 19 7 20 175
20 l175 0 0 -82z m-166 16 c12 -5 16 -20 16 -60 0 -64 -18 -79 -87 -71 -87 9
-84 43 6 77 34 12 61 26 61 31 0 5 -29 9 -65 9 -37 0 -65 4 -65 10 0 11 108
14 134 4z"/>
<path d="M430 595 c0 -10 10 -15 30 -15 32 0 40 14 14 24 -27 10 -44 7 -44 -9z"/>
<path d="M432 543 c3 -24 8 -29 37 -31 18 -2 38 1 44 7 16 16 -21 51 -55 51
-26 0 -29 -3 -26 -27z"/>
<path d="M570 551 c0 -19 18 -31 46 -31 8 0 14 10 14 25 0 21 -5 25 -30 25
-23 0 -30 -5 -30 -19z"/>
<path d="M2067 643 c-4 -3 -7 -48 -7 -100 0 -74 3 -93 14 -93 11 0 16 15 18
53 3 48 5 52 28 52 23 0 25 -4 28 -52 2 -38 7 -53 18 -53 10 0 14 14 14 54 0
65 -19 90 -62 84 -26 -4 -28 -2 -28 29 0 31 -9 41 -23 26z"/>
<path d="M3424 639 c-10 -17 13 -36 27 -22 12 12 4 33 -11 33 -5 0 -12 -5 -16
-11z"/>
<path d="M3794 637 c-3 -8 -4 -52 -2 -98 3 -81 4 -84 28 -87 20 -3 23 -1 13 9
-9 8 -13 44 -13 101 0 54 -4 88 -10 88 -6 0 -13 -6 -16 -13z"/>
<path d="M4654 639 c-10 -17 13 -36 27 -22 12 12 4 33 -11 33 -5 0 -12 -5 -16
-11z"/>
<path d="M4984 639 c-10 -17 13 -36 27 -22 12 12 4 33 -11 33 -5 0 -12 -5 -16
-11z"/>
<path d="M1050 545 c0 -78 3 -95 15 -95 10 0 15 10 15 29 0 46 20 49 53 8 47
-59 64 -46 23 17 l-35 54 31 41 c40 55 14 54 -34 -1 l-37 -43 -1 43 c0 30 -4
42 -15 42 -12 0 -15 -17 -15 -95z"/>
<path d="M1900 545 c0 -78 3 -95 15 -95 10 0 15 11 15 35 0 31 3 35 25 35 32
0 65 33 65 64 0 32 -35 56 -82 56 l-38 0 0 -95z m74 59 c35 -13 12 -54 -30
-54 -9 0 -14 11 -14 30 0 30 11 37 44 24z"/>
<path d="M3991 618 c-5 -13 -23 -54 -39 -93 -20 -46 -27 -71 -19 -74 6 -2 17
6 25 18 20 30 84 30 104 0 8 -12 19 -20 25 -18 13 5 -59 181 -76 187 -6 2 -15
-7 -20 -20z m37 -73 c11 -24 10 -25 -18 -25 -28 0 -29 1 -18 25 6 14 14 25 18
25 4 0 12 -11 18 -25z"/>
<path d="M3323 623 c-7 -3 -13 -11 -13 -19 0 -8 -4 -14 -10 -14 -5 0 -10 -7
-10 -15 0 -8 5 -15 10 -15 6 0 10 -19 10 -43 0 -48 13 -67 47 -67 16 0 23 6
23 19 0 12 -7 18 -17 17 -14 -1 -19 8 -21 37 -3 32 0 37 17 37 12 0 21 7 21
15 0 8 -9 15 -19 15 -11 0 -21 8 -23 18 -2 11 -9 17 -15 15z"/>
<path d="M4883 623 c-7 -3 -13 -11 -13 -19 0 -8 -4 -14 -10 -14 -5 0 -10 -7
-10 -15 0 -8 5 -15 10 -15 6 0 10 -19 10 -43 0 -48 13 -67 47 -67 16 0 23 6
23 19 0 12 -7 18 -17 17 -14 -1 -19 8 -21 37 -3 32 0 37 17 37 12 0 21 7 21
15 0 8 -9 15 -19 15 -11 0 -21 8 -23 18 -2 11 -9 17 -15 15z"/>
<path d="M1230 570 c-45 -45 -11 -120 53 -120 38 0 48 6 41 24 -3 7 -16 11
-32 8 -18 -2 -33 2 -41 12 -12 14 -8 16 38 16 44 0 51 3 51 20 0 28 -35 60
-65 60 -14 0 -34 -9 -45 -20z m75 -20 c4 -6 -8 -10 -30 -10 -22 0 -34 4 -30
10 3 6 17 10 30 10 13 0 27 -4 30 -10z"/>
<path d="M1380 519 c0 -54 3 -69 14 -69 11 0 16 15 18 53 3 48 5 52 28 52 23
0 25 -4 28 -52 2 -38 7 -53 18 -53 10 0 14 14 14 54 0 69 -15 86 -75 84 l-45
-1 0 -68z"/>
<path d="M1535 555 c8 -19 22 -51 31 -71 17 -40 13 -64 -11 -64 -8 0 -15 -7
-15 -15 0 -18 20 -19 42 -2 9 6 30 51 47 100 25 70 28 87 15 87 -8 0 -19 -12
-24 -27 -26 -72 -25 -71 -48 -20 -12 27 -27 47 -37 47 -14 0 -14 -3 0 -35z"/>
<path d="M1685 580 c-10 -17 3 -28 29 -23 13 3 27 0 30 -6 5 -7 -2 -11 -18
-11 -45 0 -74 -53 -43 -78 6 -6 34 -10 60 -10 37 1 47 4 42 15 -3 8 -5 32 -5
53 0 22 -7 45 -16 54 -17 18 -69 22 -79 6z m63 -82 c-5 -15 -48 -24 -48 -10 0
14 12 22 33 22 10 0 17 -5 15 -12z"/>
<path d="M2225 580 c-10 -17 3 -28 29 -23 13 3 27 0 30 -6 5 -7 -2 -11 -18
-11 -45 0 -74 -53 -43 -78 6 -6 34 -10 60 -10 37 1 47 4 42 15 -3 8 -5 32 -5
53 0 22 -7 45 -16 54 -17 18 -69 22 -79 6z m63 -82 c-5 -15 -48 -24 -48 -10 0
14 12 22 33 22 10 0 17 -5 15 -12z"/>
<path d="M2360 518 c0 -53 3 -68 14 -68 11 0 16 14 18 48 2 37 7 49 25 57 41
18 35 33 -13 33 l-44 -1 0 -69z"/>
<path d="M2480 518 c0 -53 3 -68 14 -68 11 0 16 15 18 53 3 44 6 52 23 52 17
0 20 -8 23 -52 2 -37 7 -53 17 -53 10 0 15 16 17 53 3 44 6 52 23 52 17 0 20
-8 23 -52 2 -38 7 -53 18 -53 18 0 20 110 2 128 -15 15 -55 16 -63 2 -5 -8
-11 -8 -19 -1 -7 6 -31 9 -54 8 l-42 -1 0 -68z"/>
<path d="M2715 580 c-10 -17 3 -28 29 -23 13 3 27 0 30 -6 5 -7 -2 -11 -18
-11 -45 0 -74 -53 -43 -78 6 -6 34 -10 60 -10 37 1 47 4 42 15 -3 8 -5 32 -5
53 0 22 -7 45 -16 54 -17 18 -69 22 -79 6z m63 -82 c-5 -15 -48 -24 -48 -10 0
14 12 22 33 22 10 0 17 -5 15 -12z"/>
<path d="M2862 567 c-45 -48 -14 -117 52 -117 19 0 37 4 40 8 9 15 -9 27 -38
27 -36 0 -56 27 -40 53 7 10 23 17 40 17 16 0 32 4 36 10 24 33 -59 35 -90 2z"/>
<path d="M3000 570 c-45 -45 -11 -120 53 -120 38 0 48 6 41 24 -3 7 -16 11
-32 8 -18 -2 -33 2 -41 12 -12 14 -8 16 38 16 44 0 51 3 51 20 0 28 -35 60
-65 60 -14 0 -34 -9 -45 -20z m75 -20 c4 -6 -8 -10 -30 -10 -22 0 -34 4 -30
10 3 6 17 10 30 10 13 0 27 -4 30 -10z"/>
<path d="M3150 531 c0 -70 10 -81 73 -79 l47 1 0 68 c0 55 -3 69 -15 69 -11 0
-15 -12 -15 -49 0 -41 -4 -51 -20 -56 -31 -10 -40 2 -40 56 0 37 -4 49 -15 49
-12 0 -15 -13 -15 -59z"/>
<path d="M3410 575 c0 -8 5 -15 10 -15 6 0 10 -25 10 -55 0 -42 3 -55 15 -55
12 0 15 14 15 70 0 68 -1 70 -25 70 -16 0 -25 -6 -25 -15z"/>
<path d="M3512 567 c-45 -48 -14 -117 52 -117 19 0 37 4 40 8 9 15 -9 27 -38
27 -17 0 -33 7 -40 18 -16 25 4 52 40 52 16 0 32 4 36 10 24 33 -59 35 -90 2z"/>
<path d="M3645 580 c-10 -17 3 -28 29 -23 13 3 27 0 30 -6 5 -7 -2 -11 -18
-11 -45 0 -74 -53 -43 -78 6 -6 34 -10 60 -10 37 1 47 4 42 15 -3 8 -5 32 -5
53 0 22 -7 45 -16 54 -17 18 -69 22 -79 6z m63 -82 c-5 -15 -48 -24 -48 -10 0
14 12 22 33 22 10 0 17 -5 15 -12z"/>
<path d="M4121 576 c-17 -21 -6 -51 24 -64 33 -15 32 -34 -2 -30 -20 2 -28 -2
-28 -12 0 -19 51 -26 71 -9 23 19 16 49 -16 67 -37 21 -38 34 -2 30 19 -2 27
2 27 12 0 21 -58 25 -74 6z"/>
<path d="M4241 576 c-17 -21 -6 -51 24 -64 33 -15 32 -34 -2 -30 -20 2 -28 -2
-28 -12 0 -19 51 -26 71 -9 23 19 16 49 -16 67 -37 21 -38 34 -2 30 19 -2 27
2 27 12 0 21 -58 25 -74 6z"/>
<path d="M4370 570 c-41 -41 -12 -120 45 -120 14 0 34 9 45 20 41 41 12 120
-45 120 -14 0 -34 -9 -45 -20z m68 -22 c17 -17 15 -43 -4 -59 -31 -26 -70 25
-44 56 15 18 32 19 48 3z"/>
<path d="M4522 567 c-45 -48 -14 -117 52 -117 19 0 37 4 40 8 9 15 -9 27 -38
27 -36 0 -56 27 -40 53 7 10 23 17 40 17 16 0 32 4 36 10 24 33 -59 35 -90 2z"/>
<path d="M4640 575 c0 -8 5 -15 10 -15 6 0 10 -25 10 -55 0 -42 3 -55 15 -55
12 0 15 14 15 70 0 68 -1 70 -25 70 -16 0 -25 -6 -25 -15z"/>
<path d="M4735 580 c-10 -17 3 -28 29 -23 13 3 27 0 30 -6 5 -7 -2 -11 -18
-11 -45 0 -74 -53 -43 -78 6 -6 34 -10 60 -10 37 1 47 4 42 15 -3 8 -5 32 -5
53 0 22 -7 45 -16 54 -17 18 -69 22 -79 6z m63 -82 c-5 -15 -48 -24 -48 -10 0
14 12 22 33 22 10 0 17 -5 15 -12z"/>
<path d="M4970 575 c0 -8 5 -15 10 -15 6 0 10 -25 10 -55 0 -42 3 -55 15 -55
12 0 15 14 15 70 0 68 -1 70 -25 70 -16 0 -25 -6 -25 -15z"/>
<path d="M5070 570 c-41 -41 -12 -120 45 -120 14 0 34 9 45 20 41 41 12 120
-45 120 -14 0 -34 -9 -45 -20z m68 -22 c17 -17 15 -43 -4 -59 -31 -26 -70 25
-44 56 15 18 32 19 48 3z"/>
<path d="M5210 519 c0 -54 3 -69 14 -69 11 0 16 15 18 53 3 48 5 52 28 52 23
0 25 -4 28 -52 2 -38 7 -53 18 -53 10 0 14 14 14 54 0 69 -15 86 -75 84 l-45
-1 0 -68z"/>
<path d="M105 390 c-7 -12 2 -30 16 -30 12 0 12 27 0 35 -5 3 -12 1 -16 -5z"/>
<path d="M887 386 c-6 -15 1 -26 15 -26 11 0 10 27 -1 34 -5 3 -11 0 -14 -8z"/>
<path d="M80 357 c0 -15 32 -57 41 -51 13 8 11 24 -2 24 -7 0 -18 8 -25 18 -7
9 -14 13 -14 9z"/>
<path d="M915 339 c-4 -6 -14 -8 -22 -5 -9 4 -13 1 -11 -6 7 -21 26 -20 38 1
11 21 7 30 -5 10z"/>
<path d="M104 282 c31 -33 47 -29 45 13 -1 17 -2 17 -6 3 -6 -23 -21 -23 -47
-1 -12 10 -8 3 8 -15z"/>
<path d="M871 288 c-2 -39 12 -41 44 -8 16 17 23 30 17 30 -7 0 -15 -7 -18
-15 -8 -21 -32 -19 -37 3 -3 11 -5 7 -6 -10z"/>
<path d="M2265 253 c-4 -21 -9 -50 -11 -65 -8 -39 11 -35 22 4 5 17 15 33 23
36 11 4 12 -3 7 -32 -4 -22 -3 -36 3 -36 12 0 26 65 16 79 -3 6 -13 11 -21 11
-8 0 -14 9 -14 20 0 35 -19 22 -25 -17z"/>
<path d="M3325 268 c-11 -44 -10 -101 1 -105 7 -2 11 8 10 24 0 15 3 45 7 66
9 40 -8 54 -18 15z"/>
<path d="M3775 268 c-11 -44 -10 -101 1 -105 7 -2 11 8 10 24 0 15 3 45 7 66
9 40 -8 54 -18 15z"/>
<path d="M3825 268 c-11 -44 -10 -101 1 -105 7 -2 11 8 10 24 0 15 3 45 7 66
9 40 -8 54 -18 15z"/>
<path d="M2176 251 c-3 -17 -9 -44 -12 -61 -6 -33 11 -42 21 -11 3 11 15 21
27 23 51 8 47 70 -5 76 -21 3 -26 -2 -31 -27z m52 -9 c2 -7 -4 -15 -13 -18
-20 -8 -27 -1 -19 20 7 18 25 17 32 -2z"/>
<path d="M3033 265 c-5 -11 -9 -38 -9 -60 1 -34 5 -41 24 -43 12 -2 22 1 22 7
0 6 -7 11 -15 11 -20 0 -19 24 2 45 10 11 12 19 6 23 -5 4 -12 14 -15 22 -4
12 -7 11 -15 -5z"/>
<path d="M3100 270 c0 -5 5 -10 10 -10 6 0 10 5 10 10 0 6 -4 10 -10 10 -5 0
-10 -4 -10 -10z"/>
<path d="M3426 250 c-20 -100 -22 -90 23 -90 23 0 41 5 41 10 0 6 -13 10 -29
10 -24 0 -28 3 -24 20 3 13 14 20 29 20 13 0 24 5 24 10 0 6 -12 10 -26 10
-14 0 -23 4 -19 10 3 6 19 10 36 10 16 0 29 5 29 10 0 6 -18 10 -39 10 -36 0
-40 -3 -45 -30z"/>
<path d="M164 246 c5 -16 2 -17 -21 -11 -33 8 -20 -9 15 -20 24 -7 30 9 11 35
-9 12 -10 12 -5 -4z"/>
<path d="M836 234 c-3 -9 -5 -19 -2 -21 5 -5 76 24 76 31 0 3 -12 0 -26 -6
-20 -9 -27 -9 -33 1 -6 10 -10 9 -15 -5z"/>
<path d="M2354 225 c-25 -38 -15 -60 29 -62 24 0 37 3 37 12 0 7 3 27 6 44 6
29 5 31 -25 31 -21 0 -35 -7 -47 -25z m56 -1 c0 -16 -23 -44 -35 -44 -18 0
-20 21 -3 38 12 12 38 17 38 6z"/>
<path d="M2450 209 c-6 -23 -9 -44 -5 -47 8 -9 25 19 25 41 0 11 9 21 20 24
28 7 25 23 -5 23 -20 0 -26 -7 -35 -41z"/>
<path d="M2520 235 c0 -7 -3 -27 -6 -44 -4 -19 -2 -31 4 -31 6 0 14 16 18 35
4 21 12 35 21 35 11 0 12 -8 7 -35 -4 -22 -2 -35 4 -35 6 0 14 16 18 35 4 21
12 35 21 35 11 0 12 -8 7 -35 -4 -22 -2 -35 4 -35 13 0 27 64 18 78 -9 15
-116 12 -116 -3z"/>
<path d="M2664 225 c-25 -38 -15 -60 29 -62 24 0 37 3 37 12 0 7 3 27 6 44 6
29 5 31 -25 31 -21 0 -35 -7 -47 -25z m56 -1 c0 -16 -23 -44 -35 -44 -18 0
-20 21 -3 38 12 12 38 17 38 6z"/>
<path d="M2765 234 c-9 -9 -15 -28 -13 -43 2 -20 9 -27 31 -29 15 -2 27 1 27
7 0 6 -9 11 -21 11 -30 0 -22 44 9 48 12 2 20 8 17 13 -9 14 -32 11 -50 -7z"/>
<path d="M2855 234 c-9 -9 -15 -28 -13 -43 2 -20 9 -27 31 -29 15 -2 27 1 27
7 0 6 -9 11 -20 11 -11 0 -20 5 -20 10 0 6 6 10 14 10 8 0 21 3 29 6 11 4 16
-2 19 -18 2 -18 10 -23 36 -25 27 -1 33 3 38 25 3 15 8 35 11 45 2 9 0 17 -6
17 -6 0 -14 -15 -19 -32 -5 -19 -16 -34 -26 -36 -15 -3 -16 1 -10 32 4 24 2
36 -5 36 -6 0 -11 -8 -11 -17 -1 -17 -1 -17 -11 0 -13 21 -43 22 -64 1z m42
-10 c-3 -3 -12 -4 -19 -1 -8 3 -5 6 6 6 11 1 17 -2 13 -5z"/>
<path d="M3085 205 c0 -50 11 -60 21 -17 3 15 8 35 11 45 3 11 -1 17 -14 17
-15 0 -18 -8 -18 -45z"/>
<path d="M3145 234 c-9 -9 -15 -28 -13 -43 2 -20 9 -27 31 -29 15 -2 27 1 27
7 0 6 -9 11 -21 11 -30 0 -22 44 9 48 12 2 20 8 17 13 -9 14 -32 11 -50 -7z"/>
<path d="M3224 225 c-25 -38 -15 -60 29 -62 24 0 37 3 37 12 0 7 3 27 6 44 6
29 5 31 -25 31 -21 0 -35 -7 -47 -25z m56 -1 c0 -16 -23 -44 -35 -44 -18 0
-20 21 -3 38 12 12 38 17 38 6z"/>
<path d="M3522 225 c9 -21 8 -28 -7 -45 -19 -21 -7 -28 13 -8 9 9 15 9 24 0
20 -20 28 -13 16 13 -9 21 -8 28 7 45 10 11 13 20 8 20 -6 0 -16 -7 -24 -16
-11 -14 -13 -14 -21 0 -15 26 -29 18 -16 -9z"/>
<path d="M3605 234 c-9 -9 -15 -28 -13 -43 2 -20 9 -27 31 -29 15 -2 27 1 27
7 0 6 -9 11 -21 11 -30 0 -22 44 9 48 12 2 20 8 17 13 -9 14 -32 11 -50 -7z"/>
<path d="M3696 234 c-10 -9 -16 -28 -14 -43 2 -20 9 -27 31 -29 15 -2 27 1 27
7 0 6 -9 11 -20 11 -31 0 -24 17 11 24 22 4 30 11 27 23 -4 24 -41 28 -62 7z
m41 -10 c-3 -3 -12 -4 -19 -1 -8 3 -5 6 6 6 11 1 17 -2 13 -5z"/>
<path d="M3886 234 c-10 -9 -16 -28 -14 -43 2 -20 9 -27 31 -29 15 -2 27 1 27
7 0 6 -9 11 -20 11 -31 0 -24 17 11 24 22 4 30 11 27 23 -4 24 -41 28 -62 7z
m41 -10 c-3 -3 -12 -4 -19 -1 -8 3 -5 6 6 6 11 1 17 -2 13 -5z"/>
<path d="M3960 235 c0 -7 -3 -27 -6 -44 -4 -18 -2 -31 4 -31 5 0 13 16 16 35
5 22 13 35 23 35 12 0 14 -7 9 -35 -4 -21 -3 -35 3 -35 12 0 26 64 17 79 -9
14 -66 10 -66 -4z"/>
<path d="M4055 234 c-9 -9 -15 -28 -13 -43 2 -20 9 -27 31 -29 15 -2 27 1 27
7 0 6 -9 11 -21 11 -30 0 -22 44 9 48 12 2 20 8 17 13 -9 14 -32 11 -50 -7z"/>
<path d="M4146 234 c-10 -9 -16 -28 -14 -43 2 -20 9 -27 31 -29 15 -2 27 1 27
7 0 6 -9 11 -20 11 -31 0 -24 17 11 24 22 4 30 11 27 23 -4 24 -41 28 -62 7z
m41 -10 c-3 -3 -12 -4 -19 -1 -8 3 -5 6 6 6 11 1 17 -2 13 -5z"/>
<path d="M1068 232 c-26 -5 -29 -30 -6 -46 32 -23 950 -23 972 0 20 19 10 44
-18 44 -156 3 -936 4 -948 2z"/>
<path d="M4378 232 c-26 -5 -29 -30 -6 -46 32 -22 950 -23 972 0 20 19 10 44
-18 44 -241 3 -937 4 -948 2z"/>
<path d="M207 209 c17 -22 6 -30 -24 -18 -14 5 -28 7 -31 4 -3 -3 -3 -5 -1 -5
2 0 25 -7 52 -15 45 -13 47 -13 38 4 -6 10 -18 24 -28 32 -16 12 -17 12 -6 -2z"/>
<path d="M793 208 c-23 -29 -24 -38 -6 -38 13 0 18 8 18 25 0 29 0 29 -12 13z"/>
<path d="M835 190 c-13 -6 -15 -9 -5 -9 8 0 22 4 30 9 18 12 2 12 -25 0z"/>
<path d="M715 163 c-40 -28 -40 -28 -14 -31 15 -2 42 2 60 7 l34 11 -37 -6
c-43 -6 -49 6 -15 29 12 9 20 16 17 16 -3 1 -23 -11 -45 -26z"/>
<path d="M276 165 c18 -15 16 -16 -23 -13 -62 5 -36 -12 28 -18 l54 -5 -28 25
c-15 14 -33 26 -39 26 -7 0 -3 -7 8 -15z"/>
<path d="M353 142 c24 -26 22 -30 -20 -35 -30 -3 -27 -4 16 -5 l55 -2 -29 30
c-31 32 -49 42 -22 12z"/>
<path d="M630 125 l-23 -25 59 2 c42 1 48 2 22 5 -40 4 -46 11 -26 31 7 7 8
12 2 12 -6 0 -21 -11 -34 -25z"/>
<path d="M390 80 l-55 -7 57 -1 c31 -1 60 3 63 8 3 6 3 9 -2 8 -4 -1 -33 -4
-63 -8z"/>
<path d="M562 79 c7 -5 36 -8 63 -8 60 1 50 6 -23 12 -32 2 -48 1 -40 -4z"/>
<path d="M468 60 c-9 -10 -14 -21 -11 -24 4 -3 12 3 20 14 18 26 31 25 60 -2
13 -12 23 -16 23 -9 0 6 -7 14 -15 17 -8 4 -12 10 -9 15 10 17 -51 7 -68 -11z"/>
</g>
</svg>
