<?xml version="1.0" standalone="no"?>
<!DOCTYPE svg PUBLIC "-//W3C//DTD SVG 20010904//EN"
 "http://www.w3.org/TR/2001/REC-SVG-20010904/DTD/svg10.dtd">
<svg version="1.0" xmlns="http://www.w3.org/2000/svg"
 width="467.000000pt" height="58.000000pt" viewBox="0 0 467.000000 58.000000"
 preserveAspectRatio="xMidYMid meet">

<g transform="translate(0.000000,58.000000) scale(0.100000,-0.100000)"
fill="#000000" stroke="none">
<path d="M480 481 c-8 -5 -34 -12 -57 -16 -23 -4 -53 -15 -67 -26 -29 -23 -40
-24 -56 -4 -7 8 -19 15 -26 15 -11 0 -14 -25 -14 -124 0 -122 1 -125 25 -145
51 -39 132 -39 174 0 21 20 22 27 19 150 -2 71 0 129 3 129 3 0 14 7 25 15 14
11 15 14 4 14 -8 0 -22 -3 -30 -8z m-34 -46 c-11 -8 -26 -15 -34 -15 -7 0 -11
-4 -7 -9 3 -6 -4 -15 -15 -21 -20 -11 -21 -10 -11 9 11 20 56 50 76 50 6 0 1
-6 -9 -14z m-102 -39 c-6 -16 22 -25 86 -27 l45 -2 -45 -7 c-25 -4 -36 -8 -25
-9 15 -1 17 -3 6 -10 -10 -7 -10 -10 -1 -16 7 -4 16 -1 21 6 7 11 9 10 9 -3 0
-15 -10 -18 -69 -18 -67 0 -68 0 -63 25 3 18 0 25 -12 25 -13 0 -16 -11 -16
-55 l0 -55 33 0 32 0 -33 -20 c-18 -11 -35 -20 -37 -20 -3 0 -5 36 -5 80 0 73
2 80 19 80 11 0 23 5 26 10 3 6 -1 10 -9 10 -9 0 -16 5 -16 10 0 6 13 10 30
10 21 0 28 -4 24 -14z m126 -140 c0 -19 -3 -41 -6 -50 -11 -29 -24 -16 -24 24
l0 40 -65 0 c-37 0 -65 4 -65 10 0 6 33 10 80 10 l80 0 0 -34z m-74 -42 c-6
-16 -52 -19 -61 -3 -4 5 7 15 24 22 17 6 32 16 32 22 1 5 3 2 6 -8 3 -10 2
-25 -1 -33z"/>
<path d="M340 330 c0 -5 9 -10 21 -10 11 0 17 5 14 10 -3 6 -13 10 -21 10 -8
0 -14 -4 -14 -10z"/>
<path d="M2744 290 c0 -58 1 -81 3 -52 2 28 2 76 0 105 -2 28 -3 5 -3 -53z"/>
<path d="M656 358 c-13 -18 -16 -19 -16 -5 0 9 -4 17 -10 17 -5 0 -10 -18 -10
-40 0 -22 5 -40 10 -40 6 0 10 7 10 17 0 14 2 14 20 -2 21 -19 29 -8 8 13 -9
9 -9 18 0 37 14 31 8 32 -12 3z"/>
<path d="M1017 373 c-11 -10 -8 -83 3 -83 6 0 10 5 10 11 0 6 10 19 23 30 22
19 22 19 3 34 -22 17 -29 18 -39 8z m37 -22 c3 -5 -1 -11 -9 -15 -9 -3 -15 0
-15 9 0 16 16 20 24 6z"/>
<path d="M1093 335 c0 -27 2 -38 4 -22 2 15 10 27 18 27 8 0 16 -12 18 -27 l4
-28 2 28 c1 21 -4 30 -18 34 -11 3 -22 12 -24 22 -3 9 -5 -6 -4 -34z"/>
<path d="M1881 338 c-1 -27 3 -48 7 -48 4 0 6 17 4 38 -5 58 -10 62 -11 10z"/>
<path d="M2881 354 c-12 -15 -21 -33 -21 -41 0 -18 20 -56 34 -65 17 -12 66
-9 66 3 0 6 -7 8 -16 5 -9 -4 -27 1 -40 9 -51 33 -15 113 44 98 17 -4 23 -2
18 6 -13 21 -63 12 -85 -15z"/>
<path d="M3000 310 l0 -70 38 2 c36 1 36 1 5 5 -29 4 -33 8 -33 33 0 25 4 29
33 33 l32 4 -32 1 c-28 2 -33 6 -33 26 0 20 6 25 33 29 31 4 31 4 -5 5 l-38 2
0 -70z"/>
<path d="M3112 308 l1 -73 6 59 6 60 38 -57 c20 -31 42 -57 47 -57 6 0 10 30
10 70 0 40 -4 70 -10 70 -5 0 -10 -26 -10 -57 l0 -58 -38 57 c-20 32 -40 58
-44 58 -5 0 -7 -33 -6 -72z"/>
<path d="M3258 373 c20 -4 22 -10 22 -69 0 -36 4 -64 10 -64 6 0 10 28 10 64
0 59 2 65 23 69 12 2 -3 4 -33 4 -30 0 -45 -2 -32 -4z"/>
<path d="M3371 308 c1 -49 4 -63 8 -43 8 40 32 42 53 5 20 -35 53 -40 63 -10
5 15 15 20 40 20 25 0 35 -5 40 -20 3 -11 10 -20 15 -20 5 0 -4 30 -19 68 -15
37 -32 66 -37 66 -5 -1 -20 -29 -33 -63 -13 -34 -27 -61 -31 -61 -4 0 -15 11
-23 24 -14 21 -14 26 -2 36 35 29 10 70 -42 70 l-33 0 1 -72z m57 53 c23 -14
10 -46 -21 -49 -23 -3 -27 0 -27 21 0 36 19 47 48 28z m125 -41 c4 -16 0 -20
-19 -20 -21 0 -23 2 -12 25 12 27 23 26 31 -5z"/>
<path d="M3622 313 l-2 -73 41 0 c24 0 38 4 34 10 -3 6 -19 10 -35 10 -29 0
-29 1 -33 63 l-3 62 -2 -72z"/>
<path d="M3770 311 l0 -71 38 0 c21 0 43 5 50 12 17 17 15 47 -3 54 -14 6 -13
8 2 20 29 21 5 48 -46 52 l-41 3 0 -70z m69 50 c21 -13 5 -41 -24 -41 -20 0
-25 5 -25 25 0 26 22 33 49 16z m-5 -57 c35 -13 12 -54 -30 -54 -9 0 -14 11
-14 30 0 30 11 37 44 24z"/>
<path d="M3900 310 c0 -40 4 -70 10 -70 6 0 10 14 10 30 0 19 5 30 14 30 8 0
23 -13 33 -30 9 -16 21 -30 26 -30 4 0 0 14 -10 31 -13 24 -15 33 -5 36 18 7
15 60 -4 67 -9 3 -29 6 -45 6 l-29 0 0 -70z m64 47 c23 -17 11 -47 -20 -47
-20 0 -24 5 -24 30 0 32 15 38 44 17z"/>
<path d="M4042 328 c-11 -29 -23 -61 -27 -70 -4 -10 -3 -18 3 -18 5 0 12 9 15
20 7 28 62 28 77 -1 7 -11 14 -19 16 -16 7 6 -46 137 -56 137 -4 0 -16 -24
-28 -52z m38 13 c0 -5 3 -16 6 -25 4 -12 0 -16 -16 -16 -16 0 -20 4 -16 16 3
9 6 20 6 25 0 5 5 9 10 9 6 0 10 -4 10 -9z"/>
<path d="M4150 310 c0 -40 4 -70 10 -70 6 0 10 26 10 58 l0 57 38 -57 c20 -32
40 -58 45 -58 4 0 6 33 5 73 l-1 72 -6 -59 -6 -60 -38 57 c-20 31 -42 57 -47
57 -6 0 -10 -30 -10 -70z"/>
<path d="M4320 360 c-28 -28 -27 -84 2 -104 24 -17 78 -22 78 -8 0 5 -14 9
-30 9 -39 0 -53 14 -53 53 0 39 14 53 53 53 16 0 30 4 30 9 0 16 -60 8 -80
-12z"/>
<path d="M4430 310 c0 -40 4 -70 10 -70 6 0 10 16 10 35 0 33 2 35 35 35 33 0
35 -2 35 -35 0 -19 5 -35 10 -35 6 0 10 30 10 70 0 40 -4 70 -10 70 -5 0 -10
-13 -10 -30 0 -28 -3 -30 -35 -30 -32 0 -35 2 -35 30 0 17 -4 30 -10 30 -6 0
-10 -30 -10 -70z"/>
<path d="M1658 358 c-7 -20 6 -61 21 -66 10 -3 10 0 -1 17 -11 18 -11 23 0 30
10 6 10 10 -1 20 -11 9 -16 9 -19 -1z"/>
<path d="M1961 334 c-7 -19 -10 -38 -7 -41 3 -4 6 -1 6 5 0 16 33 15 48 0 7
-7 12 -9 12 -5 0 12 -34 77 -40 77 -3 0 -12 -16 -19 -36z m29 -4 c0 -5 -4 -10
-10 -10 -5 0 -10 5 -10 10 0 6 5 10 10 10 6 0 10 -4 10 -10z"/>
<path d="M2378 358 c-9 -25 5 -68 21 -67 10 0 11 2 4 6 -15 5 -17 40 -4 45 5
2 3 8 -4 15 -10 9 -15 9 -17 1z"/>
<path d="M704 335 c-10 -24 4 -45 28 -44 23 0 23 0 -2 12 l-25 11 27 3 c18 3
25 9 21 19 -7 19 -42 18 -49 -1z m33 -1 c-3 -3 -12 -4 -19 -1 -8 3 -5 6 6 6
11 1 17 -2 13 -5z"/>
<path d="M774 320 c0 -16 3 -30 8 -30 4 0 8 12 8 26 0 32 22 27 32 -7 6 -22 7
-21 5 6 -2 24 -7 31 -28 33 -22 3 -25 -1 -25 -28z"/>
<path d="M855 317 c11 -27 11 -37 2 -47 -9 -10 -9 -11 1 -6 14 8 45 77 37 84
-2 3 -9 -6 -14 -19 l-10 -24 -7 23 c-3 12 -10 22 -15 22 -4 0 -2 -15 6 -33z"/>
<path d="M924 342 c18 -8 18 -9 3 -15 -27 -10 -21 -37 9 -37 22 0 25 4 22 28
-2 21 -9 28 -28 29 -21 2 -22 1 -6 -5z m16 -32 c0 -5 -5 -10 -11 -10 -5 0 -7
5 -4 10 3 6 8 10 11 10 2 0 4 -4 4 -10z"/>
<path d="M1174 341 c18 -7 18 -8 3 -14 -26 -10 -21 -37 7 -37 22 0 25 7 17 53
0 4 -11 7 -23 6 -21 0 -21 -1 -4 -8z m16 -31 c0 -5 -4 -10 -10 -10 -5 0 -10 5
-10 10 0 6 5 10 10 10 6 0 10 -4 10 -10z"/>
<path d="M1231 318 c2 -28 2 -29 6 -8 3 14 10 28 17 32 7 5 5 8 -6 8 -14 0
-18 -8 -17 -32z"/>
<path d="M1281 318 c1 -28 2 -29 7 -10 4 13 12 23 17 23 6 0 13 -10 17 -23 6
-22 6 -21 7 5 1 34 21 36 21 2 0 -14 5 -25 11 -25 6 0 9 12 7 28 -3 24 -7 27
-45 30 -43 3 -43 3 -42 -30z"/>
<path d="M1404 342 c19 -8 19 -9 -3 -15 -28 -7 -23 -31 8 -35 19 -3 22 0 19
25 -2 19 -9 29 -23 30 -19 3 -19 3 -1 -5z m16 -32 c0 -5 -7 -10 -16 -10 -8 0
-12 5 -9 10 3 6 10 10 16 10 5 0 9 -4 9 -10z"/>
<path d="M1454 335 c-10 -24 4 -45 28 -44 l23 0 -22 9 c-13 5 -23 14 -23 20 0
6 10 15 23 20 l22 9 -23 0 c-12 1 -25 -6 -28 -14z"/>
<path d="M1514 336 c-10 -25 3 -46 28 -45 17 1 18 2 6 6 -25 6 -22 23 3 23 27
0 19 24 -9 28 -13 2 -25 -3 -28 -12z"/>
<path d="M1591 323 c-1 -29 2 -33 24 -33 22 0 25 4 24 33 -1 29 -2 29 -8 8 -9
-35 -29 -37 -34 -4 -4 27 -4 27 -6 -4z"/>
<path d="M1718 320 c2 -16 6 -30 8 -30 2 0 4 14 4 30 0 17 -4 30 -8 30 -5 0
-7 -13 -4 -30z"/>
<path d="M1750 335 c-16 -20 4 -46 34 -44 20 2 20 2 -1 6 -14 3 -23 12 -23 23
0 11 9 20 23 23 21 4 21 4 1 6 -12 0 -27 -6 -34 -14z"/>
<path d="M1824 342 c18 -8 18 -9 3 -15 -27 -10 -21 -37 9 -37 22 0 25 4 22 28
-2 21 -9 28 -28 29 -21 2 -22 1 -6 -5z m16 -32 c0 -5 -5 -10 -11 -10 -5 0 -7
5 -4 10 3 6 8 10 11 10 2 0 4 -4 4 -10z"/>
<path d="M2030 336 c0 -8 8 -17 18 -21 16 -7 15 -8 -3 -15 -16 -7 -17 -9 -3
-9 25 -1 33 20 12 32 -17 10 -17 11 1 18 19 7 18 8 -2 8 -13 1 -23 -5 -23 -13z"/>
<path d="M2085 341 c-3 -6 3 -14 12 -20 16 -9 16 -12 3 -21 -13 -8 -13 -10 3
-10 19 0 23 25 6 36 -8 4 -7 9 2 15 11 7 10 9 -3 9 -9 0 -19 -4 -23 -9z"/>
<path d="M2144 335 c-9 -23 3 -45 25 -45 20 0 37 32 26 50 -9 15 -45 12 -51
-5z m42 -6 c10 -17 -13 -36 -27 -22 -12 12 -4 33 11 33 5 0 12 -5 16 -11z"/>
<path d="M2214 335 c-10 -24 4 -45 28 -44 l23 0 -22 9 c-13 5 -23 14 -23 20 0
6 10 15 23 20 l22 9 -23 0 c-12 1 -25 -6 -28 -14z"/>
<path d="M2278 320 c2 -16 6 -30 8 -30 2 0 4 14 4 30 0 17 -4 30 -8 30 -5 0
-7 -13 -4 -30z"/>
<path d="M2328 344 c10 -5 9 -9 -4 -18 -21 -16 -11 -36 17 -36 29 0 23 54 -6
57 -11 2 -14 0 -7 -3z m12 -34 c0 -5 -5 -10 -11 -10 -5 0 -7 5 -4 10 3 6 8 10
11 10 2 0 4 -4 4 -10z"/>
<path d="M2430 320 c0 -16 5 -30 10 -30 6 0 10 14 10 30 0 17 -4 30 -10 30 -5
0 -10 -13 -10 -30z"/>
<path d="M2464 336 c-10 -26 4 -48 28 -44 17 2 23 10 23 28 0 18 -6 26 -23 28
-13 2 -25 -3 -28 -12z m42 -7 c10 -17 -13 -36 -27 -22 -12 12 -4 33 11 33 5 0
12 -5 16 -11z"/>
<path d="M2535 320 c0 -16 3 -30 8 -30 4 0 7 12 7 26 0 32 22 27 32 -7 6 -22
7 -21 5 6 -2 24 -7 31 -27 33 -22 2 -25 -1 -25 -28z"/>
<path d="M1138 185 c-4 -21 -3 -23 13 -14 22 11 25 39 5 39 -7 0 -16 -11 -18
-25z"/>
<path d="M1177 183 c-5 -25 -4 -26 8 -10 13 18 13 18 18 0 4 -14 5 -15 6 -2 0
9 -5 22 -13 28 -11 9 -15 6 -19 -16z"/>
<path d="M1717 203 c-15 -14 -7 -53 11 -53 14 0 15 2 2 10 -13 9 -13 11 0 20
13 9 13 10 0 11 -10 0 -8 3 5 9 15 6 16 9 4 9 -9 1 -19 -2 -22 -6z"/>
<path d="M1875 200 c-4 -6 -10 -8 -15 -5 -4 3 -13 -2 -20 -11 -11 -12 -11 -17
0 -27 9 -9 11 -9 6 0 -9 16 14 29 24 13 5 -8 9 -3 12 14 6 28 3 33 -7 16z"/>
<path d="M1230 190 c-12 -8 -10 -10 8 -10 13 0 20 4 17 10 -7 12 -6 12 -25 0z"/>
<path d="M1370 185 c-9 -11 -10 -19 -3 -26 8 -8 13 -7 18 2 5 8 4 10 -3 5 -7
-4 -12 -3 -12 3 0 20 20 21 32 1 7 -11 17 -20 22 -20 6 0 5 5 -2 12 -9 9 -9
15 1 27 10 14 10 14 -4 4 -10 -9 -19 -9 -26 -2 -7 7 -14 5 -23 -6z"/>
<path d="M1530 181 c0 -11 3 -22 8 -24 4 -3 7 6 7 19 0 13 -3 24 -7 24 -5 0
-8 -9 -8 -19z"/>
<path d="M1562 180 c0 -14 2 -19 5 -12 2 6 2 18 0 25 -3 6 -5 1 -5 -13z"/>
<path d="M1624 188 c-4 -6 -3 -8 4 -4 6 3 18 -1 26 -10 9 -8 16 -12 16 -7 0
11 -21 33 -31 33 -4 0 -11 -5 -15 -12z"/>
<path d="M2005 190 c-4 -6 -10 -8 -14 -6 -4 3 -8 -1 -8 -9 0 -8 3 -13 5 -10 3
3 12 -1 21 -8 14 -10 14 -10 4 4 -10 12 -10 18 -1 27 7 7 9 12 6 12 -4 0 -10
-5 -13 -10z"/>
<path d="M625 180 c-3 -6 0 -12 7 -15 26 -10 443 0 443 10 0 14 -441 19 -450
5z"/>
<path d="M1296 173 c-6 -14 -5 -15 5 -6 7 7 10 15 7 18 -3 3 -9 -2 -12 -12z"/>
<path d="M1321 174 c0 -11 3 -14 6 -6 3 7 2 16 -1 19 -3 4 -6 -2 -5 -13z"/>
<path d="M1341 174 c0 -11 3 -14 6 -6 3 7 2 16 -1 19 -3 4 -6 -2 -5 -13z"/>
<path d="M1450 170 c0 -11 4 -20 10 -20 5 0 7 7 4 15 -4 8 -2 15 4 15 5 0 12
-7 16 -15 7 -19 36 -8 36 13 0 13 -3 12 -16 -4 -13 -16 -15 -16 -10 -1 4 13 0
17 -19 17 -18 0 -25 -5 -25 -20z"/>
<path d="M1580 176 c0 -8 4 -17 9 -20 5 -4 7 3 4 14 -6 23 -13 26 -13 6z"/>
<path d="M1760 176 c0 -9 5 -16 10 -16 6 0 10 4 10 9 0 6 -4 13 -10 16 -5 3
-10 -1 -10 -9z"/>
<path d="M1794 179 c-3 -6 -2 -15 3 -20 5 -5 9 -1 9 11 0 23 -2 24 -12 9z"/>
<path d="M1920 176 c0 -8 5 -18 10 -21 6 -4 9 -1 8 7 -2 7 5 12 15 12 9 -1 17
2 17 7 0 5 -11 9 -25 9 -15 0 -25 -6 -25 -14z"/>
<path d="M2040 176 c0 -8 5 -18 12 -22 7 -5 8 -3 3 6 -4 7 -2 16 6 21 11 7 10
9 -3 9 -10 0 -18 -6 -18 -14z"/>
<path d="M2145 180 c-3 -6 0 -12 7 -15 26 -10 443 0 443 10 0 14 -441 19 -450
5z"/>
<path d="M270 150 c0 -5 5 -10 11 -10 5 0 7 5 4 10 -3 6 -8 10 -11 10 -2 0 -4
-4 -4 -10z"/>
</g>
</svg>
